<mxfile host="app.diagrams.net" modified="2020-05-07T15:19:17.218Z" agent="5.0 (Macintosh; Intel Mac OS X 10_14_6) AppleWebKit/605.1.15 (KHTML, like Gecko) Version/13.1 Safari/605.1.15" etag="S9LVZtIYAbfDRFVTKcTM" version="13.0.9" type="github">
  <diagram id="C5RBs43oDa-KdzZeNtuy" name="Page-1">
    <mxGraphModel dx="1426" dy="842" grid="1" gridSize="10" guides="1" tooltips="1" connect="1" arrows="1" fold="1" page="1" pageScale="1" pageWidth="827" pageHeight="1169" math="0" shadow="0">
      <root>
        <mxCell id="WIyWlLk6GJQsqaUBKTNV-0" />
        <mxCell id="WIyWlLk6GJQsqaUBKTNV-1" parent="WIyWlLk6GJQsqaUBKTNV-0" />
        <mxCell id="L65D2SFwfMvNNgJAx6mo-6" value="" style="edgeStyle=orthogonalEdgeStyle;rounded=0;orthogonalLoop=1;jettySize=auto;html=1;" edge="1" parent="WIyWlLk6GJQsqaUBKTNV-1" target="L65D2SFwfMvNNgJAx6mo-3">
          <mxGeometry relative="1" as="geometry">
            <mxPoint x="322" y="320" as="sourcePoint" />
          </mxGeometry>
        </mxCell>
        <mxCell id="L65D2SFwfMvNNgJAx6mo-5" value="" style="edgeStyle=orthogonalEdgeStyle;rounded=0;orthogonalLoop=1;jettySize=auto;html=1;" edge="1" parent="WIyWlLk6GJQsqaUBKTNV-1" source="L65D2SFwfMvNNgJAx6mo-3" target="L65D2SFwfMvNNgJAx6mo-4">
          <mxGeometry relative="1" as="geometry" />
        </mxCell>
        <mxCell id="L65D2SFwfMvNNgJAx6mo-3" value="predicate" style="rounded=0;whiteSpace=wrap;html=1;fillColor=#dae8fc;strokeColor=#6c8ebf;" vertex="1" parent="WIyWlLk6GJQsqaUBKTNV-1">
          <mxGeometry x="267" y="370" width="110" height="50" as="geometry" />
        </mxCell>
        <mxCell id="L65D2SFwfMvNNgJAx6mo-14" value="" style="edgeStyle=orthogonalEdgeStyle;rounded=0;orthogonalLoop=1;jettySize=auto;html=1;" edge="1" parent="WIyWlLk6GJQsqaUBKTNV-1" source="L65D2SFwfMvNNgJAx6mo-4" target="L65D2SFwfMvNNgJAx6mo-13">
          <mxGeometry relative="1" as="geometry" />
        </mxCell>
        <mxCell id="L65D2SFwfMvNNgJAx6mo-4" value="priority" style="rounded=0;whiteSpace=wrap;html=1;fillColor=#dae8fc;strokeColor=#6c8ebf;" vertex="1" parent="WIyWlLk6GJQsqaUBKTNV-1">
          <mxGeometry x="267" y="470" width="110" height="50" as="geometry" />
        </mxCell>
        <mxCell id="L65D2SFwfMvNNgJAx6mo-62" style="edgeStyle=orthogonalEdgeStyle;rounded=0;orthogonalLoop=1;jettySize=auto;html=1;exitX=0;exitY=0.5;exitDx=0;exitDy=0;entryX=0.5;entryY=1;entryDx=0;entryDy=0;" edge="1" parent="WIyWlLk6GJQsqaUBKTNV-1" source="L65D2SFwfMvNNgJAx6mo-13" target="L65D2SFwfMvNNgJAx6mo-53">
          <mxGeometry relative="1" as="geometry" />
        </mxCell>
        <mxCell id="L65D2SFwfMvNNgJAx6mo-13" value="绑定Node" style="rounded=0;whiteSpace=wrap;html=1;fillColor=#dae8fc;strokeColor=#6c8ebf;" vertex="1" parent="WIyWlLk6GJQsqaUBKTNV-1">
          <mxGeometry x="267" y="580" width="110" height="50" as="geometry" />
        </mxCell>
        <mxCell id="L65D2SFwfMvNNgJAx6mo-19" value="开始" style="ellipse;whiteSpace=wrap;html=1;aspect=fixed;fillColor=#d5e8d4;strokeColor=#82b366;" vertex="1" parent="WIyWlLk6GJQsqaUBKTNV-1">
          <mxGeometry x="297" y="270" width="50" height="50" as="geometry" />
        </mxCell>
        <mxCell id="L65D2SFwfMvNNgJAx6mo-50" value="" style="edgeStyle=orthogonalEdgeStyle;rounded=0;orthogonalLoop=1;jettySize=auto;html=1;" edge="1" parent="WIyWlLk6GJQsqaUBKTNV-1" source="L65D2SFwfMvNNgJAx6mo-22" target="L65D2SFwfMvNNgJAx6mo-49">
          <mxGeometry relative="1" as="geometry" />
        </mxCell>
        <mxCell id="L65D2SFwfMvNNgJAx6mo-22" value="&lt;h3&gt;&lt;br&gt;&lt;/h3&gt;" style="rounded=1;whiteSpace=wrap;html=1;fillColor=#eeeeee;strokeColor=#36393d;shadow=0;comic=0;glass=0;opacity=30;perimeterSpacing=0;overflow=visible;" vertex="1" parent="WIyWlLk6GJQsqaUBKTNV-1">
          <mxGeometry x="217" y="330" width="200" height="220" as="geometry" />
        </mxCell>
        <mxCell id="L65D2SFwfMvNNgJAx6mo-23" value="&lt;b&gt;筛选节点过程&lt;/b&gt;" style="text;html=1;align=center;verticalAlign=middle;resizable=0;points=[];autosize=1;" vertex="1" parent="WIyWlLk6GJQsqaUBKTNV-1">
          <mxGeometry x="227" y="340" width="90" height="20" as="geometry" />
        </mxCell>
        <mxCell id="L65D2SFwfMvNNgJAx6mo-25" value="失败" style="text;html=1;align=center;verticalAlign=middle;resizable=0;points=[];autosize=1;" vertex="1" parent="WIyWlLk6GJQsqaUBKTNV-1">
          <mxGeometry x="427" y="410" width="40" height="20" as="geometry" />
        </mxCell>
        <mxCell id="L65D2SFwfMvNNgJAx6mo-28" value="" style="edgeStyle=orthogonalEdgeStyle;rounded=0;orthogonalLoop=1;jettySize=auto;html=1;" edge="1" parent="WIyWlLk6GJQsqaUBKTNV-1" source="L65D2SFwfMvNNgJAx6mo-26" target="L65D2SFwfMvNNgJAx6mo-27">
          <mxGeometry relative="1" as="geometry" />
        </mxCell>
        <mxCell id="L65D2SFwfMvNNgJAx6mo-30" value="" style="edgeStyle=orthogonalEdgeStyle;rounded=0;orthogonalLoop=1;jettySize=auto;html=1;" edge="1" parent="WIyWlLk6GJQsqaUBKTNV-1" source="L65D2SFwfMvNNgJAx6mo-26" target="L65D2SFwfMvNNgJAx6mo-29">
          <mxGeometry relative="1" as="geometry" />
        </mxCell>
        <mxCell id="L65D2SFwfMvNNgJAx6mo-26" value="是否可以抢占" style="rhombus;whiteSpace=wrap;html=1;rounded=1;shadow=0;glass=0;comic=0;fillColor=#fad7ac;strokeColor=#b46504;" vertex="1" parent="WIyWlLk6GJQsqaUBKTNV-1">
          <mxGeometry x="632" y="402.5" width="100" height="75" as="geometry" />
        </mxCell>
        <mxCell id="L65D2SFwfMvNNgJAx6mo-27" value="抢占" style="rounded=0;whiteSpace=wrap;html=1;fillColor=#dae8fc;strokeColor=#6c8ebf;" vertex="1" parent="WIyWlLk6GJQsqaUBKTNV-1">
          <mxGeometry x="637" y="320" width="90" height="40" as="geometry" />
        </mxCell>
        <mxCell id="L65D2SFwfMvNNgJAx6mo-29" value="重调度" style="ellipse;whiteSpace=wrap;html=1;aspect=fixed;fillColor=#f8cecc;strokeColor=#b85450;" vertex="1" parent="WIyWlLk6GJQsqaUBKTNV-1">
          <mxGeometry x="657" y="510" width="50" height="50" as="geometry" />
        </mxCell>
        <mxCell id="L65D2SFwfMvNNgJAx6mo-31" value="是" style="text;html=1;align=center;verticalAlign=middle;resizable=0;points=[];autosize=1;" vertex="1" parent="WIyWlLk6GJQsqaUBKTNV-1">
          <mxGeometry x="692" y="380" width="30" height="20" as="geometry" />
        </mxCell>
        <mxCell id="L65D2SFwfMvNNgJAx6mo-32" value="否" style="text;html=1;align=center;verticalAlign=middle;resizable=0;points=[];autosize=1;" vertex="1" parent="WIyWlLk6GJQsqaUBKTNV-1">
          <mxGeometry x="692" y="480" width="30" height="20" as="geometry" />
        </mxCell>
        <mxCell id="L65D2SFwfMvNNgJAx6mo-39" style="edgeStyle=orthogonalEdgeStyle;rounded=0;orthogonalLoop=1;jettySize=auto;html=1;exitX=1;exitY=0.5;exitDx=0;exitDy=0;exitPerimeter=0;entryX=0.5;entryY=0;entryDx=0;entryDy=0;" edge="1" parent="WIyWlLk6GJQsqaUBKTNV-1" source="L65D2SFwfMvNNgJAx6mo-33" target="L65D2SFwfMvNNgJAx6mo-19">
          <mxGeometry relative="1" as="geometry" />
        </mxCell>
        <mxCell id="L65D2SFwfMvNNgJAx6mo-33" value="等待调度队列" style="strokeWidth=2;html=1;shape=mxgraph.flowchart.direct_data;whiteSpace=wrap;rounded=1;shadow=0;glass=0;comic=0;fillColor=#dae8fc;strokeColor=#6c8ebf;" vertex="1" parent="WIyWlLk6GJQsqaUBKTNV-1">
          <mxGeometry x="127" y="170" width="130" height="40" as="geometry" />
        </mxCell>
        <mxCell id="L65D2SFwfMvNNgJAx6mo-40" value="获取pod" style="text;html=1;align=center;verticalAlign=middle;resizable=0;points=[];autosize=1;" vertex="1" parent="WIyWlLk6GJQsqaUBKTNV-1">
          <mxGeometry x="319" y="223" width="60" height="20" as="geometry" />
        </mxCell>
        <mxCell id="L65D2SFwfMvNNgJAx6mo-51" style="edgeStyle=orthogonalEdgeStyle;rounded=0;orthogonalLoop=1;jettySize=auto;html=1;exitX=1;exitY=0.5;exitDx=0;exitDy=0;exitPerimeter=0;entryX=0;entryY=0.5;entryDx=0;entryDy=0;" edge="1" parent="WIyWlLk6GJQsqaUBKTNV-1" source="L65D2SFwfMvNNgJAx6mo-49" target="L65D2SFwfMvNNgJAx6mo-26">
          <mxGeometry relative="1" as="geometry" />
        </mxCell>
        <mxCell id="L65D2SFwfMvNNgJAx6mo-49" value="调度失败队列" style="strokeWidth=2;html=1;shape=mxgraph.flowchart.direct_data;whiteSpace=wrap;rounded=1;shadow=0;glass=0;comic=0;fillColor=#dae8fc;strokeColor=#6c8ebf;" vertex="1" parent="WIyWlLk6GJQsqaUBKTNV-1">
          <mxGeometry x="467" y="420" width="130" height="40" as="geometry" />
        </mxCell>
        <mxCell id="L65D2SFwfMvNNgJAx6mo-59" style="edgeStyle=orthogonalEdgeStyle;rounded=0;orthogonalLoop=1;jettySize=auto;html=1;exitX=0.5;exitY=1;exitDx=0;exitDy=0;entryX=0;entryY=0.5;entryDx=0;entryDy=0;" edge="1" parent="WIyWlLk6GJQsqaUBKTNV-1" source="L65D2SFwfMvNNgJAx6mo-52" target="L65D2SFwfMvNNgJAx6mo-53">
          <mxGeometry relative="1" as="geometry" />
        </mxCell>
        <mxCell id="L65D2SFwfMvNNgJAx6mo-60" style="edgeStyle=orthogonalEdgeStyle;rounded=0;orthogonalLoop=1;jettySize=auto;html=1;entryX=0;entryY=0.5;entryDx=0;entryDy=0;entryPerimeter=0;" edge="1" parent="WIyWlLk6GJQsqaUBKTNV-1" source="L65D2SFwfMvNNgJAx6mo-52" target="L65D2SFwfMvNNgJAx6mo-33">
          <mxGeometry relative="1" as="geometry" />
        </mxCell>
        <mxCell id="L65D2SFwfMvNNgJAx6mo-52" value="监听" style="rounded=0;whiteSpace=wrap;html=1;shadow=0;glass=0;comic=0;fillColor=#dae8fc;strokeColor=#6c8ebf;" vertex="1" parent="WIyWlLk6GJQsqaUBKTNV-1">
          <mxGeometry x="47" y="310" width="80" height="40" as="geometry" />
        </mxCell>
        <mxCell id="L65D2SFwfMvNNgJAx6mo-53" value="etcd" style="shape=cylinder;whiteSpace=wrap;html=1;boundedLbl=1;backgroundOutline=1;rounded=1;shadow=0;glass=0;comic=0;fillColor=#ffe6cc;strokeColor=#d79b00;" vertex="1" parent="WIyWlLk6GJQsqaUBKTNV-1">
          <mxGeometry x="117" y="450" width="70" height="40" as="geometry" />
        </mxCell>
        <mxCell id="L65D2SFwfMvNNgJAx6mo-58" value="同步" style="text;html=1;align=center;verticalAlign=middle;resizable=0;points=[];autosize=1;" vertex="1" parent="WIyWlLk6GJQsqaUBKTNV-1">
          <mxGeometry x="107" y="540" width="40" height="20" as="geometry" />
        </mxCell>
        <mxCell id="L65D2SFwfMvNNgJAx6mo-64" value="入队" style="text;html=1;align=center;verticalAlign=middle;resizable=0;points=[];autosize=1;" vertex="1" parent="WIyWlLk6GJQsqaUBKTNV-1">
          <mxGeometry x="47" y="262" width="40" height="20" as="geometry" />
        </mxCell>
        <mxCell id="L65D2SFwfMvNNgJAx6mo-65" value="获取创建信息" style="text;html=1;align=center;verticalAlign=middle;resizable=0;points=[];autosize=1;" vertex="1" parent="WIyWlLk6GJQsqaUBKTNV-1">
          <mxGeometry x="7" y="402.5" width="90" height="20" as="geometry" />
        </mxCell>
      </root>
    </mxGraphModel>
  </diagram>
</mxfile>
